<svg width="15" height="24" viewBox="0 0 15 24" fill="none" xmlns="http://www.w3.org/2000/svg">
<path d="M13.775 0.737485C13.6299 0.591975 13.4574 0.476529 13.2676 0.397759C13.0778 0.318989 12.8743 0.278442 12.6688 0.278442C12.4632 0.278442 12.2597 0.318989 12.0699 0.397759C11.8801 0.476529 11.7076 0.591975 11.5625 0.737485L1.175 11.125C1.05912 11.2406 0.96719 11.378 0.904463 11.5292C0.841736 11.6804 0.809448 11.8425 0.809448 12.0062C0.809448 12.1699 0.841736 12.332 0.904463 12.4833C0.96719 12.6345 1.05912 12.7718 1.175 12.8875L11.5625 23.275C12.175 23.8875 13.1625 23.8875 13.775 23.275C14.3875 22.6625 14.3875 21.675 13.775 21.0625L4.725 12L13.7875 2.93749C14.3875 2.33749 14.3875 1.33749 13.775 0.737485Z" fill="#FF7074"/>
</svg>
