<svg width="35" height="35" viewBox="0 0 35 35" fill="none" xmlns="http://www.w3.org/2000/svg">
<path d="M15.635 26.1853L15.5 26.3215L15.3515 26.1853C8.939 20.3133 4.7 16.4305 4.7 12.4932C4.7 9.76839 6.725 7.7248 9.425 7.7248C11.504 7.7248 13.529 9.08719 14.2445 10.9401H16.7555C17.471 9.08719 19.496 7.7248 21.575 7.7248C24.275 7.7248 26.3 9.76839 26.3 12.4932C26.3 16.4305 22.061 20.3133 15.635 26.1853ZM21.575 5C19.226 5 16.9715 6.10354 15.5 7.83379C14.0285 6.10354 11.774 5 9.425 5C5.267 5 2 8.28338 2 12.4932C2 17.6294 6.59 21.8392 13.5425 28.2016L15.5 30L17.4575 28.2016C24.41 21.8392 29 17.6294 29 12.4932C29 8.28338 25.733 5 21.575 5Z" fill="#FF7074"/>
</svg>
